<?xml version="1.0" standalone="no"?>
<!DOCTYPE svg PUBLIC "-//W3C//DTD SVG 20010904//EN"
 "http://www.w3.org/TR/2001/REC-SVG-20010904/DTD/svg10.dtd">
<svg version="1.0" xmlns="http://www.w3.org/2000/svg"
 width="1000.000000pt" height="1000.000000pt" viewBox="0 0 1000.000000 1000.000000"
 preserveAspectRatio="xMidYMid meet">
<metadata>
Created by potrace 1.14, written by Peter Selinger 2001-2017
</metadata>
<g transform="translate(0.000000,1000.000000) scale(0.100000,-0.100000)"
fill="#000000" stroke="none">
<path d="M5115 8447 c-73 -19 -129 -52 -178 -101 -32 -33 -54 -46 -91 -54 -46
-10 -54 -8 -105 17 -283 142 -603 131 -759 -26 -58 -59 -83 -108 -89 -183 -7
-70 10 -127 78 -263 43 -86 47 -98 31 -103 -45 -14 -142 -70 -181 -105 -169
-153 -266 -430 -256 -734 3 -128 25 -228 66 -311 l23 -44 -25 -17 c-43 -29
-123 -118 -151 -169 -59 -109 -82 -265 -58 -395 16 -83 82 -212 137 -267 93
-93 236 -139 404 -130 l89 5 16 -56 c9 -31 17 -60 18 -64 0 -5 -29 -28 -66
-50 -192 -119 -284 -246 -304 -419 -5 -46 -18 -73 -70 -154 -91 -139 -108
-187 -108 -306 l-1 -98 -50 -15 c-27 -8 -108 -47 -180 -85 -158 -86 -526 -267
-690 -340 -142 -63 -287 -148 -354 -207 l-49 -43 -11 31 c-6 17 -24 52 -39 78
-34 55 -59 173 -67 314 -6 116 -10 137 -41 197 -12 25 -23 66 -25 90 -2 25
-12 68 -22 95 -11 28 -27 79 -37 115 -30 104 -64 156 -124 188 -17 8 -10 12
40 22 145 29 194 45 274 90 47 27 138 73 202 104 65 30 129 67 143 82 61 66 5
180 -108 218 -64 21 -160 22 -280 1 -53 -9 -103 -15 -109 -13 -14 5 -16 26
-18 138 -1 94 11 144 66 273 44 101 83 164 236 376 152 210 182 267 175 334
-8 86 -88 160 -175 161 -72 1 -114 -32 -239 -190 -168 -213 -156 -203 -127
-109 140 445 147 491 83 568 -77 93 -188 95 -239 4 -13 -23 -45 -105 -71 -182
-40 -116 -47 -131 -41 -85 15 126 1 184 -58 234 -66 55 -150 55 -206 0 -39
-39 -59 -100 -125 -381 -24 -101 -46 -183 -49 -183 -3 0 -7 30 -8 67 -3 80
-26 126 -83 166 -54 39 -96 44 -153 18 -38 -17 -51 -29 -69 -68 -19 -43 -21
-65 -21 -213 0 -91 4 -253 9 -360 5 -107 10 -325 10 -485 1 -266 3 -298 24
-390 29 -123 31 -313 4 -347 -36 -45 -43 -78 -42 -200 1 -68 -2 -134 -6 -148
-15 -54 -17 -147 -4 -171 9 -16 14 -64 14 -144 1 -115 2 -124 37 -206 20 -47
44 -121 53 -164 9 -44 27 -106 40 -140 13 -33 40 -105 60 -160 37 -105 39
-108 101 -245 97 -215 227 -364 385 -441 146 -72 196 -83 389 -83 262 1 369
24 860 186 301 100 472 162 560 204 25 12 46 21 46 20 1 0 5 -41 8 -91 4 -49
11 -138 17 -196 17 -194 13 -374 -12 -544 -16 -101 -20 -321 -8 -384 14 -72
44 -151 76 -197 24 -36 24 -39 7 -49 -57 -32 -94 -122 -94 -228 l0 -57 1666 0
1667 0 -7 67 c-4 38 -12 87 -18 111 -12 50 -66 112 -96 112 -19 0 -18 4 14 58
19 31 37 67 40 79 4 13 10 23 14 23 10 0 53 -111 116 -302 l48 -148 623 0 623
0 -116 232 c-280 561 -308 633 -460 1203 -117 435 -349 1245 -381 1325 -67
166 -185 306 -388 458 -100 75 -111 86 -113 116 -5 78 -55 184 -138 299 -35
49 -43 70 -53 135 -26 177 -138 313 -348 422 -35 18 -63 37 -63 42 0 5 5 29
11 54 9 35 15 44 28 39 35 -15 183 -14 252 0 85 18 180 62 231 107 165 148
209 448 97 670 -29 57 -107 147 -159 181 l-24 17 22 45 c107 220 87 567 -49
850 -60 124 -219 263 -338 294 -17 5 -27 18 -36 48 -19 64 -85 190 -134 257
-133 182 -326 323 -526 386 -87 27 -239 35 -310 17z"/>
</g>
</svg>
